<svg width="454" height="252" viewBox="0 0 454 252" fill="none" xmlns="http://www.w3.org/2000/svg">
<g clip-path="url(#clip0_8285_14256)">
<rect width="454" height="252" fill="#DCFCE7"/>
<g filter="url(#filter0_f_8285_14256)">
<ellipse cx="52.5" cy="198" rx="97.5" ry="99" fill="#FFFFF2"/>
</g>
<g filter="url(#filter1_f_8285_14256)">
<ellipse cx="301.5" cy="46" rx="97.5" ry="99" fill="#FFFFF2"/>
</g>
<g filter="url(#filter2_ddd_8285_14256)">
<circle cx="57" cy="59" r="51" fill="white"/>
</g>
<g opacity="0.55">
<g opacity="0.5">
<path d="M461.162 19H424.043V23.8733H461.162V19Z" fill="#9ED0BB"/>
<path d="M461.162 23.3859H420.624V30.6959H461.162V23.3859Z" fill="#9ED0BB"/>
<path d="M416.228 52.1383H461.162V59.9355H416.228L416.228 52.1383Z" fill="#9ED0BB"/>
<path d="M461.162 87.2259V79.4286H416.228V87.2259H461.162Z" fill="#9ED0BB"/>
<path d="M461.162 116.466V108.668H416.228V116.466H461.162Z" fill="#9ED0BB"/>
<path d="M461.162 143.756V135.959H416.228V143.756H461.162Z" fill="#9ED0BB"/>
<path d="M423.066 52.1383H416.228V143.756H423.066V52.1383Z" fill="#9ED0BB"/>
<path d="M416.228 52.1383H423.066L430.881 30.6959H424.043L416.228 52.1383Z" fill="#9ED0BB"/>
<path d="M423.066 143.756H416.228L406.46 173.97H416.228L423.066 143.756Z" fill="#9ED0BB"/>
<path d="M423.066 54.0876L421.112 51.1636L460.185 28.7466L462.139 31.6705L423.066 54.0876Z" fill="#9ED0BB"/>
<path d="M393.087 86.5438L390.831 84.7892L390.839 83.8146L421.453 51.7179L424.159 53.9669L393.087 86.5438Z" fill="#9ED0BB"/>
<path d="M393.1 142.013L390.856 140.255L390.862 139.281L421.189 107.269L423.881 109.522L393.1 142.013Z" fill="#9ED0BB"/>
<path d="M425.02 83.3273L423.066 80.4033L462.139 57.9862L464.093 60.9102L425.02 83.3273Z" fill="#9ED0BB"/>
<path d="M425.02 111.592L423.066 108.668L462.139 86.2512L464.093 89.1752L425.02 111.592Z" fill="#9ED0BB"/>
<path d="M425.02 138.883L423.066 135.959L462.139 113.542L464.093 116.466L425.02 138.883Z" fill="#9ED0BB"/>
<path d="M417.205 173.97L415.251 171.046L461.162 142.781L463.116 145.705L417.205 173.97Z" fill="#9ED0BB"/>
<path d="M466.046 56.0369L468 53.1129L428.927 30.6959L426.973 33.6198L466.046 56.0369Z" fill="#9ED0BB"/>
<path d="M460.185 83.3273L462.139 80.4033L423.066 57.9862L421.112 60.9102L460.185 83.3273Z" fill="#9ED0BB"/>
<path d="M460.185 111.592L462.139 108.668L423.066 86.2512L421.112 89.1752L460.185 111.592Z" fill="#9ED0BB"/>
<path d="M460.185 138.883L462.139 135.959L423.066 113.542L421.112 116.466L460.185 138.883Z" fill="#9ED0BB"/>
<path d="M465.07 169.097L467.023 167.148L423.066 142.781L421.112 145.705L465.07 169.097Z" fill="#9ED0BB"/>
<path d="M391.319 83.3273H417.205V87.2259H390.831V83.8146L391.319 83.3273Z" fill="#9ED0BB"/>
<path d="M391.319 138.883H417.205V142.781H390.831V139.37L391.319 138.883Z" fill="#9ED0BB"/>
<path d="M390.831 87.2259H394.738V90.1498H390.831V87.2259Z" fill="#9ED0BB"/>
<path d="M390.831 142.781H394.738V145.705H390.831V142.781Z" fill="#9ED0BB"/>
<path d="M416.228 52.1383H461.162V59.9355H416.228L416.228 52.1383ZM416.228 52.1383H423.066M416.228 52.1383V143.756M416.228 52.1383L424.043 30.6959H430.881L423.066 52.1383M416.228 143.756H461.162V135.959H416.228V143.756ZM416.228 143.756H423.066M416.228 143.756L406.46 173.97H416.228L423.066 143.756M423.066 52.1383V143.756M390.831 87.2259H417.205V83.3273H391.319L390.831 83.8146V87.2259ZM390.831 87.2259H394.738V90.1498H390.831V87.2259ZM390.831 142.781H417.205V138.883H391.319L390.831 139.37V142.781ZM390.831 142.781H394.738V145.705H390.831V142.781ZM391.319 89.6625C368.1 104.05 175.725 167.148 -45 145.705M391.807 144.731C360.06 164.711 115.416 276.646 -24.075 250.525M424.043 19H461.162V23.8733H424.043V19ZM420.624 23.3859H461.162V30.6959H420.624V23.3859ZM461.162 79.4286V87.2259H416.228V79.4286H461.162ZM461.162 108.668V116.466H416.228V108.668H461.162ZM421.112 51.1636L423.066 54.0876L462.139 31.6705L460.185 28.7466L421.112 51.1636ZM390.831 84.7892L393.087 86.5438L424.159 53.9669L421.453 51.7179L390.839 83.8146L390.831 84.7892ZM390.856 140.255L393.1 142.013L423.881 109.522L421.189 107.269L390.862 139.281L390.856 140.255ZM423.066 80.4033L425.02 83.3273L464.093 60.9102L462.139 57.9862L423.066 80.4033ZM423.066 108.668L425.02 111.592L464.093 89.1752L462.139 86.2512L423.066 108.668ZM423.066 135.959L425.02 138.883L464.093 116.466L462.139 113.542L423.066 135.959ZM415.251 171.046L417.205 173.97L463.116 145.705L461.162 142.781L415.251 171.046ZM468 53.1129L466.046 56.0369L426.973 33.6198L428.927 30.6959L468 53.1129ZM462.139 80.4033L460.185 83.3273L421.112 60.9102L423.066 57.9862L462.139 80.4033ZM462.139 108.668L460.185 111.592L421.112 89.1752L423.066 86.2512L462.139 108.668ZM462.139 135.959L460.185 138.883L421.112 116.466L423.066 113.542L462.139 135.959ZM467.023 167.148L465.07 169.097L421.112 145.705L423.066 142.781L467.023 167.148Z" stroke="#9ED0BB" stroke-width="1.35"/>
</g>
<path d="M296.879 100L256.955 139.924V258.315H336.803V139.924L296.879 100Z" fill="#78A28F"/>
<path d="M336.863 139.924L296.939 100H390.095L430.019 139.924H336.863Z" fill="#2B6048"/>
<path d="M429.96 139.987H336.93V258.315H429.96V139.987Z" fill="#9DC4B4"/>
<rect x="290.412" y="146.072" width="13.308" height="19.962" fill="#2B6048"/>
<path d="M427.873 156.203C448.3 132.893 456.88 138.914 462.6 137.8V263.35H307.35C308.638 260.618 320.042 223.681 345.359 216.729C370.675 209.777 369.858 182.785 396.414 177.878C422.97 172.971 418.555 166.836 427.873 156.203Z" fill="#2B6048"/>
</g>
<path opacity="0.77" d="M0 -5V94C17.0625 48.4902 52.0661 20.125 145.688 31.2353C252.637 43.9272 290.062 31.6667 315 -5H0Z" fill="#ADE5C9"/>
<path d="M73.7197 46C67.106 46.0001 61.6197 50.8206 60.5791 57.1396C59.2246 56.4627 57.6973 56.0801 56.0801 56.0801C50.7547 56.0801 46.3969 60.2098 46.0283 65.4414L46 65.4404V76.2373H55.9688C56.0057 76.2377 56.043 76.2402 56.0801 76.2402C56.1172 76.2402 56.1543 76.2377 56.1914 76.2373H100.964C101.003 76.2379 101.041 76.2402 101.08 76.2402C101.119 76.2402 101.158 76.2379 101.196 76.2373H170.146C157.59 76.1729 131.298 74.8333 112.961 69.7598C112.304 68.8853 111.258 68.3203 110.08 68.3203C109.568 68.3203 109.08 68.4271 108.639 68.6201C108.606 64.4724 105.235 61.1201 101.08 61.1201C98.8835 61.1201 96.9066 62.0578 95.5254 63.5537C94.7366 62.5126 93.4869 61.8399 92.0801 61.8398C92.0203 61.8398 91.9606 61.8413 91.9014 61.8438C91.2944 58.8467 89.1967 56.392 86.417 55.2812C84.7066 49.8992 79.6682 46 73.7197 46Z" fill="white" fill-opacity="0.4"/>
<path d="M175.018 94C181.946 94 187.694 99.05 188.784 105.67C190.203 104.961 191.804 104.56 193.498 104.56C199.077 104.56 203.641 108.886 204.027 114.366L204.058 114.365V125.678H193.575C193.549 125.678 193.524 125.68 193.498 125.68C193.472 125.68 193.446 125.678 193.42 125.678H146.437C146.409 125.678 146.382 125.68 146.354 125.68C146.327 125.68 146.3 125.678 146.273 125.678H74C87.1552 125.61 114.699 124.207 133.909 118.892H133.908C134.596 117.975 135.692 117.383 136.926 117.383C137.463 117.383 137.973 117.496 138.436 117.698C138.469 113.353 142.001 109.84 146.354 109.84C148.656 109.84 150.727 110.822 152.174 112.39C153 111.299 154.309 110.595 155.783 110.595C155.846 110.595 155.909 110.596 155.971 110.599C156.607 107.458 158.804 104.886 161.717 103.723C163.509 98.0847 168.786 94 175.018 94Z" fill="white" fill-opacity="0.4"/>
<path d="M45.3636 111.234C45.2145 110.716 45.005 110.258 44.7351 109.86C44.4652 109.455 44.1349 109.114 43.7443 108.837C43.3608 108.553 42.9205 108.337 42.4233 108.188C41.9332 108.038 41.3899 107.964 40.7933 107.964C39.6783 107.964 38.6982 108.241 37.853 108.795C37.0149 109.349 36.3615 110.155 35.8928 111.213C35.424 112.264 35.1896 113.55 35.1896 115.07C35.1896 116.589 35.4205 117.882 35.8821 118.947C36.3438 120.013 36.9972 120.826 37.8423 121.387C38.6875 121.941 39.6854 122.218 40.8359 122.218C41.88 122.218 42.7713 122.033 43.5099 121.664C44.2557 121.288 44.8239 120.759 45.2145 120.077C45.6122 119.395 45.8111 118.589 45.8111 117.658L46.7486 117.797H41.1236V114.324H50.2536V117.072C50.2536 118.99 49.8487 120.638 49.0391 122.016C48.2294 123.386 47.1143 124.445 45.6939 125.19C44.2734 125.929 42.647 126.298 40.8146 126.298C38.7692 126.298 36.9723 125.847 35.424 124.945C33.8757 124.036 32.6683 122.747 31.8018 121.078C30.9425 119.402 30.5128 117.413 30.5128 115.112C30.5128 113.344 30.7685 111.767 31.2798 110.382C31.7983 108.99 32.5227 107.811 33.4531 106.845C34.3835 105.879 35.4666 105.144 36.7024 104.64C37.9382 104.136 39.277 103.884 40.7188 103.884C41.9545 103.884 43.1051 104.065 44.1705 104.427C45.2358 104.782 46.1804 105.286 47.0043 105.94C47.8352 106.593 48.5135 107.371 49.0391 108.273C49.5646 109.168 49.902 110.155 50.0511 111.234H45.3636ZM58.2995 126.309C57.2555 126.309 56.3251 126.128 55.5083 125.766C54.6916 125.396 54.0453 124.853 53.5694 124.136C53.1007 123.411 52.8663 122.509 52.8663 121.43C52.8663 120.521 53.0332 119.757 53.367 119.139C53.7008 118.521 54.1554 118.024 54.7306 117.648C55.3059 117.271 55.9593 116.987 56.6909 116.795C57.4295 116.604 58.2037 116.469 59.0133 116.391C59.965 116.291 60.7321 116.199 61.3145 116.114C61.8968 116.021 62.3194 115.886 62.5822 115.709C62.845 115.531 62.9764 115.268 62.9764 114.92V114.857C62.9764 114.182 62.7633 113.66 62.3372 113.29C61.9181 112.921 61.3216 112.737 60.5474 112.737C59.7306 112.737 59.0808 112.918 58.5978 113.28C58.1149 113.635 57.7953 114.082 57.639 114.622L53.4416 114.281C53.6547 113.287 54.0737 112.428 54.6987 111.703C55.3237 110.972 56.1298 110.411 57.117 110.02C58.1113 109.622 59.2619 109.423 60.5687 109.423C61.4778 109.423 62.3478 109.53 63.1788 109.743C64.0169 109.956 64.7591 110.286 65.4054 110.734C66.0588 111.181 66.5737 111.756 66.9501 112.46C67.3265 113.156 67.5147 113.99 67.5147 114.963V126H63.2108V123.731H63.0829C62.8201 124.242 62.4686 124.693 62.0282 125.084C61.5879 125.467 61.0588 125.769 60.4409 125.989C59.823 126.202 59.1092 126.309 58.2995 126.309ZM59.5993 123.177C60.2669 123.177 60.8564 123.045 61.3677 122.783C61.8791 122.513 62.2804 122.151 62.5716 121.696C62.8627 121.241 63.0083 120.727 63.0083 120.151V118.415C62.8663 118.507 62.671 118.592 62.4224 118.67C62.1809 118.741 61.9075 118.809 61.6021 118.873C61.2967 118.93 60.9913 118.983 60.6859 119.033C60.3805 119.075 60.1035 119.114 59.8549 119.15C59.3223 119.228 58.8571 119.352 58.4593 119.523C58.0616 119.693 57.7527 119.924 57.5325 120.215C57.3123 120.499 57.2022 120.854 57.2022 121.281C57.2022 121.898 57.426 122.371 57.8734 122.697C58.3279 123.017 58.9032 123.177 59.5993 123.177ZM71.0357 126V109.636H75.361V112.523H75.5527C75.8936 111.565 76.4618 110.808 77.2573 110.254C78.0527 109.7 79.0044 109.423 80.1124 109.423C81.2346 109.423 82.1898 109.704 82.9782 110.265C83.7665 110.819 84.2921 111.572 84.5549 112.523H84.7253C85.0591 111.586 85.6628 110.837 86.5364 110.276C87.4171 109.707 88.4576 109.423 89.6578 109.423C91.1848 109.423 92.4242 109.91 93.3759 110.883C94.3347 111.849 94.8141 113.219 94.8141 114.995V126H90.2864V115.89C90.2864 114.981 90.0449 114.299 89.562 113.844C89.079 113.39 88.4753 113.163 87.7509 113.163C86.927 113.163 86.2843 113.425 85.8226 113.951C85.361 114.469 85.1301 115.155 85.1301 116.007V126H80.7303V115.794C80.7303 114.991 80.4995 114.352 80.0378 113.876C79.5833 113.401 78.9831 113.163 78.2374 113.163C77.7331 113.163 77.2786 113.29 76.8738 113.546C76.476 113.795 76.16 114.146 75.9256 114.601C75.6912 115.048 75.574 115.574 75.574 116.178V126H71.0357ZM98.4842 126V104.182H103.023V112.385H103.161C103.36 111.945 103.648 111.497 104.024 111.043C104.407 110.581 104.905 110.197 105.515 109.892C106.133 109.58 106.9 109.423 107.817 109.423C109.01 109.423 110.111 109.736 111.119 110.361C112.128 110.979 112.934 111.913 113.537 113.163C114.141 114.406 114.443 115.964 114.443 117.839C114.443 119.665 114.148 121.206 113.559 122.463C112.976 123.713 112.181 124.661 111.172 125.308C110.171 125.947 109.049 126.266 107.806 126.266C106.925 126.266 106.176 126.121 105.558 125.83C104.947 125.538 104.447 125.173 104.056 124.732C103.665 124.285 103.367 123.834 103.161 123.379H102.959V126H98.4842ZM102.927 117.818C102.927 118.791 103.062 119.64 103.331 120.364C103.601 121.089 103.992 121.653 104.503 122.058C105.015 122.456 105.636 122.655 106.368 122.655C107.106 122.655 107.731 122.452 108.243 122.048C108.754 121.636 109.141 121.067 109.404 120.343C109.674 119.612 109.809 118.77 109.809 117.818C109.809 116.874 109.677 116.043 109.415 115.325C109.152 114.608 108.765 114.047 108.253 113.642C107.742 113.237 107.113 113.035 106.368 113.035C105.629 113.035 105.004 113.23 104.493 113.621C103.988 114.011 103.601 114.565 103.331 115.283C103.062 116 102.927 116.845 102.927 117.818ZM122.137 126.309C121.093 126.309 120.163 126.128 119.346 125.766C118.529 125.396 117.883 124.853 117.407 124.136C116.939 123.411 116.704 122.509 116.704 121.43C116.704 120.521 116.871 119.757 117.205 119.139C117.539 118.521 117.993 118.024 118.569 117.648C119.144 117.271 119.797 116.987 120.529 116.795C121.267 116.604 122.042 116.469 122.851 116.391C123.803 116.291 124.57 116.199 125.152 116.114C125.735 116.021 126.157 115.886 126.42 115.709C126.683 115.531 126.814 115.268 126.814 114.92V114.857C126.814 114.182 126.601 113.66 126.175 113.29C125.756 112.921 125.159 112.737 124.385 112.737C123.569 112.737 122.919 112.918 122.436 113.28C121.953 113.635 121.633 114.082 121.477 114.622L117.279 114.281C117.493 113.287 117.912 112.428 118.537 111.703C119.162 110.972 119.968 110.411 120.955 110.02C121.949 109.622 123.1 109.423 124.407 109.423C125.316 109.423 126.186 109.53 127.017 109.743C127.855 109.956 128.597 110.286 129.243 110.734C129.897 111.181 130.412 111.756 130.788 112.46C131.164 113.156 131.353 113.99 131.353 114.963V126H127.049V123.731H126.921C126.658 124.242 126.306 124.693 125.866 125.084C125.426 125.467 124.897 125.769 124.279 125.989C123.661 126.202 122.947 126.309 122.137 126.309ZM123.437 123.177C124.105 123.177 124.694 123.045 125.206 122.783C125.717 122.513 126.118 122.151 126.409 121.696C126.701 121.241 126.846 120.727 126.846 120.151V118.415C126.704 118.507 126.509 118.592 126.26 118.67C126.019 118.741 125.745 118.809 125.44 118.873C125.135 118.93 124.829 118.983 124.524 119.033C124.218 119.075 123.941 119.114 123.693 119.15C123.16 119.228 122.695 119.352 122.297 119.523C121.9 119.693 121.591 119.924 121.37 120.215C121.15 120.499 121.04 120.854 121.04 121.281C121.04 121.898 121.264 122.371 121.711 122.697C122.166 123.017 122.741 123.177 123.437 123.177ZM134.874 126V109.636H139.273V112.491H139.444C139.742 111.476 140.243 110.709 140.946 110.19C141.649 109.665 142.459 109.402 143.375 109.402C143.602 109.402 143.847 109.416 144.11 109.445C144.373 109.473 144.604 109.512 144.803 109.562V113.589C144.589 113.525 144.295 113.468 143.918 113.418C143.542 113.369 143.197 113.344 142.885 113.344C142.217 113.344 141.621 113.489 141.095 113.781C140.577 114.065 140.165 114.462 139.859 114.974C139.561 115.485 139.412 116.075 139.412 116.742V126H134.874ZM154.178 126V104.182H158.716V112.385H158.854C159.053 111.945 159.341 111.497 159.717 111.043C160.101 110.581 160.598 110.197 161.209 109.892C161.827 109.58 162.594 109.423 163.51 109.423C164.703 109.423 165.804 109.736 166.812 110.361C167.821 110.979 168.627 111.913 169.231 113.163C169.835 114.406 170.136 115.964 170.136 117.839C170.136 119.665 169.842 121.206 169.252 122.463C168.67 123.713 167.874 124.661 166.866 125.308C165.864 125.947 164.742 126.266 163.499 126.266C162.619 126.266 161.869 126.121 161.251 125.83C160.641 125.538 160.14 125.173 159.749 124.732C159.359 124.285 159.06 123.834 158.854 123.379H158.652V126H154.178ZM158.62 117.818C158.62 118.791 158.755 119.64 159.025 120.364C159.295 121.089 159.685 121.653 160.197 122.058C160.708 122.456 161.33 122.655 162.061 122.655C162.8 122.655 163.425 122.452 163.936 122.048C164.447 121.636 164.835 121.067 165.097 120.343C165.367 119.612 165.502 118.77 165.502 117.818C165.502 116.874 165.371 116.043 165.108 115.325C164.845 114.608 164.458 114.047 163.947 113.642C163.435 113.237 162.807 113.035 162.061 113.035C161.322 113.035 160.697 113.23 160.186 113.621C159.682 114.011 159.295 114.565 159.025 115.283C158.755 116 158.62 116.845 158.62 117.818ZM180.622 126.32C178.939 126.32 177.49 125.979 176.275 125.297C175.068 124.608 174.138 123.635 173.484 122.378C172.831 121.114 172.504 119.619 172.504 117.893C172.504 116.21 172.831 114.732 173.484 113.461C174.138 112.19 175.057 111.199 176.243 110.489C177.437 109.778 178.836 109.423 180.441 109.423C181.52 109.423 182.525 109.597 183.456 109.945C184.393 110.286 185.21 110.801 185.906 111.49C186.609 112.179 187.156 113.045 187.547 114.089C187.937 115.126 188.133 116.341 188.133 117.733V118.979H174.315V116.167H183.861C183.861 115.513 183.719 114.935 183.434 114.43C183.15 113.926 182.756 113.532 182.252 113.248C181.755 112.957 181.176 112.811 180.515 112.811C179.827 112.811 179.216 112.971 178.683 113.29C178.157 113.603 177.746 114.026 177.447 114.558C177.149 115.084 176.996 115.67 176.989 116.316V118.99C176.989 119.8 177.138 120.499 177.437 121.089C177.742 121.678 178.172 122.133 178.726 122.452C179.28 122.772 179.937 122.932 180.697 122.932C181.201 122.932 181.662 122.861 182.081 122.719C182.501 122.577 182.859 122.364 183.157 122.08C183.456 121.795 183.683 121.447 183.839 121.036L188.037 121.312C187.824 122.321 187.387 123.202 186.726 123.955C186.073 124.7 185.228 125.283 184.191 125.702C183.161 126.114 181.971 126.32 180.622 126.32ZM195.633 104.182V126H191.094V104.182H195.633ZM209.762 119.033V109.636H214.3V126H209.943V123.028H209.772C209.403 123.987 208.789 124.757 207.929 125.339C207.077 125.922 206.037 126.213 204.808 126.213C203.714 126.213 202.752 125.964 201.921 125.467C201.09 124.97 200.44 124.263 199.971 123.347C199.51 122.431 199.275 121.334 199.268 120.055V109.636H203.806V119.246C203.814 120.212 204.073 120.975 204.584 121.536C205.096 122.097 205.781 122.378 206.64 122.378C207.187 122.378 207.699 122.254 208.174 122.005C208.65 121.749 209.034 121.373 209.325 120.876C209.623 120.379 209.769 119.764 209.762 119.033ZM217.93 126V109.636H222.256V112.523H222.447C222.788 111.565 223.356 110.808 224.152 110.254C224.947 109.7 225.899 109.423 227.007 109.423C228.129 109.423 229.084 109.704 229.873 110.265C230.661 110.819 231.187 111.572 231.449 112.523H231.62C231.954 111.586 232.557 110.837 233.431 110.276C234.312 109.707 235.352 109.423 236.552 109.423C238.079 109.423 239.319 109.91 240.27 110.883C241.229 111.849 241.709 113.219 241.709 114.995V126H237.181V115.89C237.181 114.981 236.939 114.299 236.456 113.844C235.974 113.39 235.37 113.163 234.645 113.163C233.822 113.163 233.179 113.425 232.717 113.951C232.256 114.469 232.025 115.155 232.025 116.007V126H227.625V115.794C227.625 114.991 227.394 114.352 226.932 113.876C226.478 113.401 225.878 113.163 225.132 113.163C224.628 113.163 224.173 113.29 223.768 113.546C223.371 113.795 223.055 114.146 222.82 114.601C222.586 115.048 222.469 115.574 222.469 116.178V126H217.93ZM39.5149 145.636V149.045H29.6605V145.636H39.5149ZM31.8977 141.716H36.4361V156.972C36.4361 157.391 36.5 157.717 36.6278 157.952C36.7557 158.179 36.9332 158.339 37.1605 158.431C37.3949 158.523 37.6648 158.57 37.9702 158.57C38.1832 158.57 38.3963 158.552 38.6094 158.516C38.8224 158.474 38.9858 158.442 39.0994 158.42L39.8132 161.798C39.5859 161.869 39.2663 161.95 38.8544 162.043C38.4425 162.142 37.9418 162.202 37.3523 162.224C36.2585 162.266 35.2997 162.121 34.4759 161.787C33.6591 161.453 33.0234 160.935 32.5689 160.232C32.1143 159.528 31.8906 158.641 31.8977 157.568V141.716ZM49.7528 162.32C48.0696 162.32 46.6207 161.979 45.4062 161.297C44.1989 160.608 43.2685 159.635 42.6151 158.378C41.9616 157.114 41.6349 155.619 41.6349 153.893C41.6349 152.21 41.9616 150.732 42.6151 149.461C43.2685 148.19 44.1882 147.199 45.3743 146.489C46.5675 145.778 47.9666 145.423 49.5717 145.423C50.6513 145.423 51.6563 145.597 52.5866 145.945C53.5241 146.286 54.3409 146.801 55.0369 147.49C55.7401 148.179 56.2869 149.045 56.6776 150.089C57.0682 151.126 57.2635 152.341 57.2635 153.733V154.979H43.446V152.167H52.9915C52.9915 151.513 52.8494 150.935 52.5653 150.43C52.2813 149.926 51.8871 149.532 51.3828 149.248C50.8857 148.957 50.3068 148.811 49.6463 148.811C48.9574 148.811 48.3466 148.971 47.8139 149.29C47.2884 149.603 46.8764 150.026 46.5781 150.558C46.2798 151.084 46.1271 151.67 46.12 152.316V154.99C46.12 155.8 46.2692 156.499 46.5675 157.089C46.8729 157.678 47.3026 158.133 47.8565 158.452C48.4105 158.772 49.0675 158.932 49.8274 158.932C50.3317 158.932 50.7933 158.861 51.2124 158.719C51.6314 158.577 51.9901 158.364 52.2884 158.08C52.5866 157.795 52.8139 157.447 52.9702 157.036L57.1676 157.312C56.9545 158.321 56.5178 159.202 55.8572 159.955C55.2038 160.7 54.3587 161.283 53.3217 161.702C52.2919 162.114 51.1023 162.32 49.7528 162.32ZM60.2251 162V145.636H64.625V148.491H64.7955C65.0938 147.476 65.5945 146.709 66.2976 146.19C67.0007 145.665 67.8104 145.402 68.7266 145.402C68.9538 145.402 69.1989 145.416 69.4616 145.445C69.7244 145.473 69.9553 145.512 70.1541 145.562V149.589C69.9411 149.525 69.6463 149.468 69.2699 149.418C68.8935 149.369 68.549 149.344 68.2365 149.344C67.5689 149.344 66.9723 149.489 66.4467 149.781C65.9283 150.065 65.5163 150.462 65.2109 150.974C64.9126 151.485 64.7635 152.075 64.7635 152.742V162H60.2251ZM86.1156 150.303L81.9608 150.558C81.8897 150.203 81.737 149.884 81.5027 149.599C81.2683 149.308 80.9593 149.077 80.5758 148.907C80.1994 148.729 79.7484 148.641 79.2228 148.641C78.5197 148.641 77.9267 148.79 77.4437 149.088C76.9608 149.379 76.7193 149.77 76.7193 150.26C76.7193 150.651 76.8755 150.981 77.188 151.251C77.5005 151.521 78.0368 151.737 78.7967 151.901L81.7583 152.497C83.3493 152.824 84.5353 153.349 85.3166 154.074C86.0978 154.798 86.4885 155.75 86.4885 156.929C86.4885 158.001 86.1724 158.942 85.5403 159.752C84.9153 160.562 84.0559 161.194 82.9622 161.648C81.8755 162.096 80.622 162.32 79.2015 162.32C77.0353 162.32 75.3095 161.869 74.024 160.967C72.7456 160.058 71.9963 158.822 71.7761 157.259L76.2399 157.025C76.3748 157.685 76.7015 158.19 77.22 158.538C77.7385 158.879 78.4025 159.049 79.2122 159.049C80.0076 159.049 80.6468 158.896 81.1298 158.591C81.6199 158.278 81.8684 157.877 81.8755 157.387C81.8684 156.975 81.6944 156.638 81.3535 156.375C81.0126 156.105 80.487 155.899 79.7768 155.757L76.943 155.192C75.345 154.873 74.1554 154.319 73.3741 153.531C72.6 152.742 72.2129 151.737 72.2129 150.516C72.2129 149.464 72.497 148.559 73.0652 147.799C73.6404 147.039 74.4466 146.453 75.4835 146.041C76.5275 145.629 77.7491 145.423 79.1483 145.423C81.215 145.423 82.8414 145.86 84.0275 146.734C85.2207 147.607 85.9167 148.797 86.1156 150.303ZM96.8036 162.32C95.1204 162.32 93.6715 161.979 92.457 161.297C91.2496 160.608 90.3192 159.635 89.6658 158.378C89.0124 157.114 88.6857 155.619 88.6857 153.893C88.6857 152.21 89.0124 150.732 89.6658 149.461C90.3192 148.19 91.239 147.199 92.4251 146.489C93.6183 145.778 95.0174 145.423 96.6225 145.423C97.7021 145.423 98.707 145.597 99.6374 145.945C100.575 146.286 101.392 146.801 102.088 147.49C102.791 148.179 103.338 149.045 103.728 150.089C104.119 151.126 104.314 152.341 104.314 153.733V154.979H90.4968V152.167H100.042C100.042 151.513 99.9002 150.935 99.6161 150.43C99.332 149.926 98.9379 149.532 98.4336 149.248C97.9364 148.957 97.3576 148.811 96.6971 148.811C96.0082 148.811 95.3974 148.971 94.8647 149.29C94.3391 149.603 93.9272 150.026 93.6289 150.558C93.3306 151.084 93.1779 151.67 93.1708 152.316V154.99C93.1708 155.8 93.32 156.499 93.6183 157.089C93.9237 157.678 94.3533 158.133 94.9073 158.452C95.4613 158.772 96.1183 158.932 96.8782 158.932C97.3825 158.932 97.8441 158.861 98.2631 158.719C98.6822 158.577 99.0408 158.364 99.3391 158.08C99.6374 157.795 99.8647 157.447 100.021 157.036L104.218 157.312C104.005 158.321 103.569 159.202 102.908 159.955C102.255 160.7 101.409 161.283 100.373 161.702C99.3427 162.114 98.1531 162.32 96.8036 162.32ZM113.306 162.266C112.063 162.266 110.937 161.947 109.929 161.308C108.927 160.661 108.132 159.713 107.542 158.463C106.96 157.206 106.669 155.665 106.669 153.839C106.669 151.964 106.971 150.406 107.574 149.163C108.178 147.913 108.98 146.979 109.982 146.361C110.99 145.736 112.095 145.423 113.295 145.423C114.211 145.423 114.975 145.58 115.586 145.892C116.203 146.197 116.701 146.581 117.077 147.043C117.461 147.497 117.752 147.945 117.951 148.385H118.089V140.182H122.617V162H118.142V159.379H117.951C117.738 159.834 117.436 160.285 117.045 160.732C116.662 161.173 116.161 161.538 115.543 161.83C114.932 162.121 114.186 162.266 113.306 162.266ZM114.744 158.655C115.475 158.655 116.093 158.456 116.598 158.058C117.109 157.653 117.5 157.089 117.77 156.364C118.047 155.64 118.185 154.791 118.185 153.818C118.185 152.845 118.05 152 117.78 151.283C117.51 150.565 117.12 150.011 116.608 149.621C116.097 149.23 115.475 149.035 114.744 149.035C113.998 149.035 113.37 149.237 112.858 149.642C112.347 150.047 111.96 150.608 111.697 151.325C111.434 152.043 111.303 152.874 111.303 153.818C111.303 154.77 111.434 155.612 111.697 156.343C111.967 157.067 112.354 157.636 112.858 158.048C113.37 158.452 113.998 158.655 114.744 158.655ZM126.348 162V145.636H130.887V162H126.348ZM128.628 143.527C127.953 143.527 127.374 143.303 126.892 142.856C126.416 142.401 126.178 141.858 126.178 141.226C126.178 140.601 126.416 140.065 126.892 139.617C127.374 139.163 127.953 138.935 128.628 138.935C129.303 138.935 129.878 139.163 130.354 139.617C130.837 140.065 131.078 140.601 131.078 141.226C131.078 141.858 130.837 142.401 130.354 142.856C129.878 143.303 129.303 143.527 128.628 143.527ZM139.188 162.309C138.144 162.309 137.214 162.128 136.397 161.766C135.58 161.396 134.934 160.853 134.458 160.136C133.989 159.411 133.755 158.509 133.755 157.43C133.755 156.521 133.922 155.757 134.256 155.139C134.589 154.521 135.044 154.024 135.619 153.648C136.195 153.271 136.848 152.987 137.58 152.795C138.318 152.604 139.092 152.469 139.902 152.391C140.854 152.291 141.621 152.199 142.203 152.114C142.786 152.021 143.208 151.886 143.471 151.709C143.734 151.531 143.865 151.268 143.865 150.92V150.857C143.865 150.182 143.652 149.66 143.226 149.29C142.807 148.921 142.21 148.737 141.436 148.737C140.619 148.737 139.969 148.918 139.487 149.28C139.004 149.635 138.684 150.082 138.528 150.622L134.33 150.281C134.543 149.287 134.962 148.428 135.587 147.703C136.212 146.972 137.018 146.411 138.006 146.02C139 145.622 140.151 145.423 141.457 145.423C142.366 145.423 143.237 145.53 144.067 145.743C144.906 145.956 145.648 146.286 146.294 146.734C146.947 147.181 147.462 147.756 147.839 148.46C148.215 149.156 148.403 149.99 148.403 150.963V162H144.099V159.731H143.972C143.709 160.242 143.357 160.693 142.917 161.084C142.477 161.467 141.947 161.769 141.33 161.989C140.712 162.202 139.998 162.309 139.188 162.309ZM140.488 159.177C141.156 159.177 141.745 159.045 142.256 158.783C142.768 158.513 143.169 158.151 143.46 157.696C143.751 157.241 143.897 156.727 143.897 156.151V154.415C143.755 154.507 143.56 154.592 143.311 154.67C143.07 154.741 142.796 154.809 142.491 154.873C142.185 154.93 141.88 154.983 141.575 155.033C141.269 155.075 140.992 155.114 140.744 155.15C140.211 155.228 139.746 155.352 139.348 155.523C138.95 155.693 138.641 155.924 138.421 156.215C138.201 156.499 138.091 156.854 138.091 157.281C138.091 157.898 138.315 158.371 138.762 158.697C139.217 159.017 139.792 159.177 140.488 159.177Z" fill="#69A389"/>
</g>
<defs>
<filter id="filter0_f_8285_14256" x="-137.7" y="6.3" width="380.4" height="383.4" filterUnits="userSpaceOnUse" color-interpolation-filters="sRGB">
<feFlood flood-opacity="0" result="BackgroundImageFix"/>
<feBlend mode="normal" in="SourceGraphic" in2="BackgroundImageFix" result="shape"/>
<feGaussianBlur stdDeviation="46.35" result="effect1_foregroundBlur_8285_14256"/>
</filter>
<filter id="filter1_f_8285_14256" x="111.3" y="-145.7" width="380.4" height="383.4" filterUnits="userSpaceOnUse" color-interpolation-filters="sRGB">
<feFlood flood-opacity="0" result="BackgroundImageFix"/>
<feBlend mode="normal" in="SourceGraphic" in2="BackgroundImageFix" result="shape"/>
<feGaussianBlur stdDeviation="46.35" result="effect1_foregroundBlur_8285_14256"/>
</filter>
<filter id="filter2_ddd_8285_14256" x="-114" y="-112" width="342" height="342" filterUnits="userSpaceOnUse" color-interpolation-filters="sRGB">
<feFlood flood-opacity="0" result="BackgroundImageFix"/>
<feColorMatrix in="SourceAlpha" type="matrix" values="0 0 0 0 0 0 0 0 0 0 0 0 0 0 0 0 0 0 127 0" result="hardAlpha"/>
<feOffset/>
<feGaussianBlur stdDeviation="20"/>
<feColorMatrix type="matrix" values="0 0 0 0 1 0 0 0 0 1 0 0 0 0 1 0 0 0 0.8 0"/>
<feBlend mode="normal" in2="BackgroundImageFix" result="effect1_dropShadow_8285_14256"/>
<feColorMatrix in="SourceAlpha" type="matrix" values="0 0 0 0 0 0 0 0 0 0 0 0 0 0 0 0 0 0 127 0" result="hardAlpha"/>
<feOffset/>
<feGaussianBlur stdDeviation="40"/>
<feColorMatrix type="matrix" values="0 0 0 0 1 0 0 0 0 1 0 0 0 0 1 0 0 0 0.6 0"/>
<feBlend mode="normal" in2="effect1_dropShadow_8285_14256" result="effect2_dropShadow_8285_14256"/>
<feColorMatrix in="SourceAlpha" type="matrix" values="0 0 0 0 0 0 0 0 0 0 0 0 0 0 0 0 0 0 127 0" result="hardAlpha"/>
<feOffset/>
<feGaussianBlur stdDeviation="60"/>
<feColorMatrix type="matrix" values="0 0 0 0 1 0 0 0 0 1 0 0 0 0 1 0 0 0 0.24 0"/>
<feBlend mode="normal" in2="effect2_dropShadow_8285_14256" result="effect3_dropShadow_8285_14256"/>
<feBlend mode="normal" in="SourceGraphic" in2="effect3_dropShadow_8285_14256" result="shape"/>
</filter>
<clipPath id="clip0_8285_14256">
<rect width="454" height="252" fill="white"/>
</clipPath>
</defs>
</svg>
